<svg width="32" height="32" viewBox="0 0 32 32" fill="none" xmlns="http://www.w3.org/2000/svg">
<path d="M8 11C8 10.606 8.0776 10.2159 8.22836 9.85195C8.37913 9.48797 8.6001 9.15726 8.87868 8.87868C9.15726 8.6001 9.48797 8.37913 9.85195 8.22836C10.2159 8.0776 10.606 8 11 8C11.394 8 11.7841 8.0776 12.1481 8.22836C12.512 8.37913 12.8427 8.6001 13.1213 8.87868C13.3999 9.15726 13.6209 9.48797 13.7716 9.85195C13.9224 10.2159 14 10.606 14 11C14 11.7956 13.6839 12.5587 13.1213 13.1213C12.5587 13.6839 11.7956 14 11 14C10.2044 14 9.44129 13.6839 8.87868 13.1213C8.31607 12.5587 8 11.7956 8 11ZM11 6C9.67392 6 8.40215 6.52678 7.46447 7.46447C6.52678 8.40215 6 9.67392 6 11C6 12.3261 6.52678 13.5979 7.46447 14.5355C8.40215 15.4732 9.67392 16 11 16C12.3261 16 13.5979 15.4732 14.5355 14.5355C15.4732 13.5979 16 12.3261 16 11C16 9.67392 15.4732 8.40215 14.5355 7.46447C13.5979 6.52678 12.3261 6 11 6ZM21 12C21 11.4696 21.2107 10.9609 21.5858 10.5858C21.9609 10.2107 22.4696 10 23 10C23.5304 10 24.0391 10.2107 24.4142 10.5858C24.7893 10.9609 25 11.4696 25 12C25 12.5304 24.7893 13.0391 24.4142 13.4142C24.0391 13.7893 23.5304 14 23 14C22.4696 14 21.9609 13.7893 21.5858 13.4142C21.2107 13.0391 21 12.5304 21 12ZM23 8C21.9391 8 20.9217 8.42143 20.1716 9.17157C19.4214 9.92172 19 10.9391 19 12C19 13.0609 19.4214 14.0783 20.1716 14.8284C20.9217 15.5786 21.9391 16 23 16C24.0609 16 25.0783 15.5786 25.8284 14.8284C26.5786 14.0783 27 13.0609 27 12C27 10.9391 26.5786 9.92172 25.8284 9.17157C25.0783 8.42143 24.0609 8 23 8ZM3 21C3 20.2044 3.31607 19.4413 3.87868 18.8787C4.44129 18.3161 5.20435 18 6 18H16C16.7956 18 17.5587 18.3161 18.1213 18.8787C18.6839 19.4413 19 20.2044 19 21V21.224C18.9996 21.3157 18.9929 21.4072 18.98 21.498C18.8663 22.4677 18.5054 23.3918 17.932 24.182C16.838 25.692 14.758 27 11 27C7.242 27 5.164 25.692 4.066 24.182C3.49329 23.3916 3.13312 22.4675 3.02 21.498C3.0102 21.4069 3.00353 21.3155 3 21.224V21ZM5 21.18V21.194L5.008 21.292C5.0852 21.9112 5.31774 22.5008 5.684 23.006C6.336 23.902 7.756 25 11 25C14.244 25 15.664 23.902 16.316 23.006C16.6823 22.5008 16.9148 21.9112 16.992 21.292L17 21.192V21C17 20.7348 16.8946 20.4804 16.7071 20.2929C16.5196 20.1054 16.2652 20 16 20H6C5.73478 20 5.48043 20.1054 5.29289 20.2929C5.10536 20.4804 5 20.7348 5 21V21.18ZM23 25C21.824 25 20.86 24.82 20.08 24.524C20.3977 23.9353 20.6402 23.3091 20.802 22.66C21.338 22.862 22.05 23 23 23C25.238 23 26.156 22.236 26.56 21.668C26.798 21.3377 26.948 20.9523 26.996 20.548L27 20.492C26.9979 20.3608 26.9443 20.2357 26.8508 20.1436C26.7572 20.0516 26.6312 20 26.5 20H20.9C20.7517 19.2749 20.4443 18.5918 20 18H26.5C27.88 18 29 19.12 29 20.5V20.534C28.9986 20.6069 28.9933 20.6797 28.984 20.752C28.9014 21.5021 28.6273 22.2184 28.188 22.832C27.344 24.014 25.762 25 23 25Z" fill="#656565"/>
</svg>
