<svg width="30" height="31" viewBox="0 0 30 31" fill="none" xmlns="http://www.w3.org/2000/svg">
<path d="M15 26.466C12.125 26.466 9.62 25.5131 7.485 23.6073C5.35 21.7015 4.12583 19.321 3.8125 16.466H6.375C6.66667 18.6327 7.63042 20.4244 9.26625 21.841C10.9021 23.2577 12.8133 23.966 15 23.966C17.4375 23.966 19.5054 23.1173 21.2037 21.4198C22.9021 19.7223 23.7508 17.6544 23.75 15.216C23.7492 12.7777 22.9004 10.7102 21.2037 9.01353C19.5071 7.31687 17.4392 6.4677 15 6.46603C13.5625 6.46603 12.2188 6.79937 10.9687 7.46603C9.71875 8.1327 8.66667 9.04937 7.8125 10.216H11.25V12.716H3.75V5.21603H6.25V8.15353C7.3125 6.8202 8.60958 5.78895 10.1412 5.05978C11.6729 4.33062 13.2925 3.96603 15 3.96603C16.5625 3.96603 18.0262 4.26312 19.3912 4.85728C20.7562 5.45145 21.9438 6.25312 22.9538 7.26228C23.9638 8.27145 24.7658 9.45895 25.36 10.8248C25.9542 12.1906 26.2508 13.6544 26.25 15.216C26.2492 16.7777 25.9525 18.2415 25.36 19.6073C24.7675 20.9731 23.9654 22.1606 22.9538 23.1698C21.9421 24.179 20.7546 24.981 19.3912 25.576C18.0279 26.171 16.5642 26.4677 15 26.466ZM18.5 20.466L13.75 15.716V8.96603H16.25V14.716L20.25 18.716L18.5 20.466Z" fill="black"/>
</svg>
