<svg width="150" height="31" viewBox="0 0 150 31" fill="none" xmlns="http://www.w3.org/2000/svg">
<path d="M8.08 24H16.84V30H0.24V1.8H8.08V24ZM39.3284 18.52C39.3284 19.1333 39.2884 19.7467 39.2084 20.36H24.3684C24.4484 21.5867 24.7818 22.5067 25.3684 23.12C25.9818 23.7067 26.7551 24 27.6884 24C28.9951 24 29.9284 23.4133 30.4884 22.24H38.8484C38.5018 23.7867 37.8218 25.1733 36.8084 26.4C35.8218 27.6 34.5684 28.5467 33.0484 29.24C31.5284 29.9333 29.8484 30.28 28.0084 30.28C25.7951 30.28 23.8218 29.8133 22.0884 28.88C20.3818 27.9467 19.0351 26.6133 18.0484 24.88C17.0884 23.1467 16.6084 21.1067 16.6084 18.76C16.6084 16.4133 17.0884 14.3867 18.0484 12.68C19.0084 10.9467 20.3418 9.61333 22.0484 8.68C23.7818 7.74667 25.7684 7.28 28.0084 7.28C30.2218 7.28 32.1818 7.73333 33.8884 8.64C35.5951 9.54667 36.9284 10.8533 37.8884 12.56C38.8484 14.24 39.3284 16.2267 39.3284 18.52ZM31.3284 16.56C31.3284 15.6 31.0084 14.8533 30.3684 14.32C29.7284 13.76 28.9284 13.48 27.9684 13.48C27.0084 13.48 26.2218 13.7467 25.6084 14.28C24.9951 14.7867 24.5951 15.5467 24.4084 16.56H31.3284ZM39.2569 18.76C39.2569 16.44 39.6702 14.4133 40.4969 12.68C41.3502 10.9467 42.4969 9.61333 43.9369 8.68C45.4035 7.74667 47.0302 7.28 48.8169 7.28C50.3635 7.28 51.6969 7.58667 52.8169 8.2C53.9369 8.81333 54.8035 9.64 55.4169 10.68V7.56H63.2569V30H55.4169V26.88C54.8035 27.92 53.9235 28.7467 52.7769 29.36C51.6569 29.9733 50.3369 30.28 48.8169 30.28C47.0302 30.28 45.4035 29.8133 43.9369 28.88C42.4969 27.9467 41.3502 26.6133 40.4969 24.88C39.6702 23.12 39.2569 21.08 39.2569 18.76ZM55.4169 18.76C55.4169 17.32 55.0169 16.1867 54.2169 15.36C53.4435 14.5333 52.4835 14.12 51.3369 14.12C50.1635 14.12 49.1902 14.5333 48.4169 15.36C47.6435 16.16 47.2569 17.2933 47.2569 18.76C47.2569 20.2 47.6435 21.3467 48.4169 22.2C49.1902 23.0267 50.1635 23.44 51.3369 23.44C52.4835 23.44 53.4435 23.0267 54.2169 22.2C55.0169 21.3733 55.4169 20.2267 55.4169 18.76ZM73.5644 11.52C74.4444 10.24 75.511 9.22666 76.7644 8.48C78.0177 7.73333 79.3644 7.36 80.8044 7.36V15.72H78.6044C76.8977 15.72 75.631 16.0533 74.8044 16.72C73.9777 17.3867 73.5644 18.5467 73.5644 20.2V30H65.7244V7.56H73.5644V11.52ZM96.295 7.36C98.8817 7.36 100.935 8.22666 102.455 9.96C103.975 11.6667 104.735 13.9867 104.735 16.92V30H96.895V17.96C96.895 16.68 96.5617 15.68 95.895 14.96C95.2283 14.2133 94.335 13.84 93.215 13.84C92.0417 13.84 91.1217 14.2133 90.455 14.96C89.7883 15.68 89.455 16.68 89.455 17.96V30H81.615V7.56H89.455V10.76C90.1483 9.74666 91.0817 8.93333 92.255 8.32C93.4283 7.68 94.775 7.36 96.295 7.36Z" fill="#1F1F1F"/>
<path d="M114.877 8.08V12.68H123.877V18.64H114.877V23.72H125.077V30H107.037V1.8H125.077V8.08H114.877ZM125.671 18.76C125.671 16.44 126.084 14.4133 126.911 12.68C127.764 10.9467 128.924 9.61333 130.391 8.68C131.858 7.74667 133.484 7.28 135.271 7.28C136.711 7.28 137.991 7.58667 139.111 8.2C140.258 8.78667 141.151 9.6 141.791 10.64V0.4H149.671V30H141.791V26.88C141.178 27.92 140.311 28.7467 139.191 29.36C138.071 29.9733 136.751 30.28 135.231 30.28C133.444 30.28 131.818 29.8133 130.351 28.88C128.911 27.9467 127.764 26.6133 126.911 24.88C126.084 23.12 125.671 21.08 125.671 18.76ZM141.831 18.76C141.831 17.32 141.431 16.1867 140.631 15.36C139.858 14.5333 138.898 14.12 137.751 14.12C136.578 14.12 135.604 14.5333 134.831 15.36C134.058 16.16 133.671 17.2933 133.671 18.76C133.671 20.2 134.058 21.3467 134.831 22.2C135.604 23.0267 136.578 23.44 137.751 23.44C138.898 23.44 139.858 23.0267 140.631 22.2C141.431 21.3733 141.831 20.2267 141.831 18.76Z" fill="#0500FF"/>
</svg>
