<svg width="32" height="33" viewBox="0 0 32 33" fill="none" xmlns="http://www.w3.org/2000/svg">
<path d="M2.66667 16.7292L1.62667 15.8959L0.959999 16.7292L1.62667 17.5625L2.66667 16.7292ZM14.6667 18.0625C15.0203 18.0625 15.3594 17.922 15.6095 17.672C15.8595 17.4219 16 17.0828 16 16.7292C16 16.3756 15.8595 16.0364 15.6095 15.7864C15.3594 15.5363 15.0203 15.3959 14.6667 15.3959V18.0625ZM6.96 9.22919L1.62667 15.8959L3.70667 17.5625L9.04 10.8959L6.96 9.22919ZM1.62667 17.5625L6.96 24.2292L9.04 22.5625L3.70667 15.8959L1.62667 17.5625ZM2.66667 18.0625H14.6667V15.3959H2.66667V18.0625Z" fill="black"/>
<path d="M13.3333 11.5718V10.5812C13.3333 8.42251 13.3333 7.34384 13.9653 6.59851C14.5973 5.85318 15.6613 5.67451 17.7893 5.31851L20.0187 4.94784C24.3427 4.22784 26.504 3.86784 27.9187 5.06518C29.3333 6.26384 29.3333 8.45584 29.3333 12.8385V20.6185C29.3333 25.0025 29.3333 27.1945 27.92 28.3918C26.504 29.5918 24.3427 29.2318 20.0187 28.5105L17.7893 28.1385C15.6613 27.7838 14.5973 27.6065 13.9653 26.8612C13.3333 26.1145 13.3333 25.0345 13.3333 22.8758V22.1492" stroke="black" stroke-width="2"/>
</svg>
