<svg width="30" height="30" viewBox="0 0 30 30" fill="none" xmlns="http://www.w3.org/2000/svg">
<g clip-path="url(#clip0_2383_1117)">
<path d="M28.75 2.5H1.25C0.918479 2.5 0.600537 2.6317 0.366117 2.86612C0.131696 3.10054 0 3.41848 0 3.75L0 26.25C0 26.5815 0.131696 26.8995 0.366117 27.1339C0.600537 27.3683 0.918479 27.5 1.25 27.5H28.75C29.0815 27.5 29.3995 27.3683 29.6339 27.1339C29.8683 26.8995 30 26.5815 30 26.25V3.75C30 3.41848 29.8683 3.10054 29.6339 2.86612C29.3995 2.6317 29.0815 2.5 28.75 2.5ZM27.5 25H25V23.75H18.75V25H2.5V5H27.5V25ZM12.8625 12.1375C12.8625 11.5706 13.0877 11.0269 13.4886 10.6261C13.8894 10.2252 14.4331 10 15 10C16.1875 10 17.1375 10.9625 17.1375 12.1375C17.1375 13.325 16.1875 14.2875 15 14.2875C13.8125 14.2875 12.8625 13.325 12.8625 12.1375ZM7.1375 14.1125C7.1375 13.225 7.8625 12.5 8.75 12.5C9.17766 12.5 9.58781 12.6699 9.89021 12.9723C10.1926 13.2747 10.3625 13.6848 10.3625 14.1125C10.3625 15 9.6375 15.7125 8.75 15.7125C7.8625 15.7125 7.1375 15 7.1375 14.1125ZM19.6375 14.1125C19.6375 13.6848 19.8074 13.2747 20.1098 12.9723C20.4122 12.6699 20.8223 12.5 21.25 12.5C21.6777 12.5 22.0878 12.6699 22.3902 12.9723C22.6926 13.2747 22.8625 13.6848 22.8625 14.1125C22.8625 15 22.1375 15.7125 21.25 15.7125C20.3625 15.7125 19.6375 15 19.6375 14.1125ZM25 18.925V20H5V18.925C5 17.75 6.9375 16.7875 8.75 16.7875C9.4375 16.7875 10.1375 16.925 10.75 17.1625C11.6875 16.3 13.375 15.7125 15 15.7125C16.625 15.7125 18.3125 16.3 19.25 17.1625C19.8625 16.925 20.5625 16.7875 21.25 16.7875C23.0625 16.7875 25 17.75 25 18.925Z" fill="#1F1F1F"/>
</g>
<defs>
<clipPath id="clip0_2383_1117">
<rect width="30" height="30" fill="white"/>
</clipPath>
</defs>
</svg>
