<svg width="24" height="24" viewBox="0 0 24 24" fill="none" xmlns="http://www.w3.org/2000/svg">
<path d="M12 9.8V20M12 9.8C12 8.096 12.107 6.216 10.362 5.327C9.72 5 8.88 5 7.2 5H4.6C3.364 5 3 5.437 3 6.6V15.4C3 15.968 2.964 16.595 3.546 16.891C3.76 17 4.039 17 4.598 17H7.431C9.808 17 10.691 18.036 12 20M12 9.8C12 8.096 11.892 6.216 13.638 5.327C14.279 5 15.12 5 16.8 5H19.4C20.635 5 21 5.436 21 6.6V15.4C21 15.967 21.035 16.595 20.454 16.891C20.241 17 19.961 17 19.402 17H16.569C14.192 17 13.309 18.036 12 20" stroke="#656565" stroke-width="1.5" stroke-linecap="round" stroke-linejoin="round"/>
</svg>
