<svg width="30" height="31" viewBox="0 0 30 31" fill="none" xmlns="http://www.w3.org/2000/svg">
<path d="M9.65 21.4625L11.8512 20.8275L25.105 7.41498C25.2095 7.30785 25.2677 7.16389 25.267 7.01421C25.2663 6.86452 25.2068 6.72112 25.1012 6.61498L24.3075 5.81248C24.2562 5.75977 24.1949 5.71781 24.1272 5.68905C24.0596 5.66028 23.9868 5.64529 23.9133 5.64494C23.8397 5.64459 23.7669 5.65889 23.6989 5.68702C23.631 5.71514 23.5693 5.75651 23.5175 5.80873L10.2987 19.1862L9.65 21.4625ZM25.8787 4.22248L26.6725 5.02623C27.7675 6.13498 27.7775 7.92373 26.6925 9.02123L13.035 22.8437L8.33 24.1987C8.18776 24.2387 8.03904 24.2503 7.89233 24.2328C7.74562 24.2153 7.60379 24.1691 7.47495 24.0967C7.34611 24.0244 7.23277 23.9274 7.14141 23.8113C7.05005 23.6952 6.98246 23.5622 6.9425 23.42C6.8812 23.2137 6.88033 22.9942 6.94 22.7875L8.30875 17.9875L21.93 4.20123C22.189 3.94043 22.4974 3.7338 22.8371 3.59342C23.1768 3.45303 23.541 3.38169 23.9086 3.38355C24.2761 3.38541 24.6396 3.46044 24.9779 3.60426C25.3162 3.74808 25.6224 3.95906 25.8787 4.22248ZM11.48 5.66373C12.1 5.66373 12.6025 6.17248 12.6025 6.79998C12.6035 6.94831 12.5752 7.09539 12.5193 7.23279C12.4634 7.3702 12.381 7.49524 12.2768 7.60077C12.1725 7.7063 12.0485 7.79024 11.9118 7.8478C11.7751 7.90536 11.6283 7.93541 11.48 7.93623H6.99C5.75 7.93623 4.745 8.95373 4.745 10.2075V23.84C4.745 25.095 5.75 26.1125 6.99 26.1125H20.46C21.7 26.1125 22.7063 25.095 22.7063 23.84V19.2962C22.7063 18.6687 23.2087 18.16 23.8288 18.16C24.4487 18.16 24.9513 18.6687 24.9513 19.2975V23.84C24.9513 26.35 22.94 28.385 20.46 28.385H6.99C4.51 28.385 2.5 26.35 2.5 23.84V10.2075C2.5 7.69873 4.51 5.66373 6.99 5.66373H11.48Z" fill="#1F1F1F"/>
</svg>
