<svg width="30" height="31" viewBox="0 0 30 31" fill="none" xmlns="http://www.w3.org/2000/svg">
<path d="M24.875 16.6266C24.6746 16.3985 24.5641 16.1052 24.5641 15.8016C24.5641 15.4979 24.6746 15.2047 24.875 14.9766L26.475 13.1766C26.6513 12.9799 26.7608 12.7324 26.7877 12.4697C26.8147 12.207 26.7577 11.9424 26.625 11.7141L24.125 7.38907C23.9936 7.16097 23.7936 6.98016 23.5534 6.87242C23.3133 6.76468 23.0452 6.73551 22.7875 6.78907L20.4375 7.26407C20.1385 7.32585 19.8272 7.27605 19.5624 7.12407C19.2975 6.97208 19.0975 6.72842 19 6.43907L18.2375 4.15157C18.1536 3.90329 17.9939 3.68765 17.7808 3.53512C17.5677 3.38259 17.3121 3.30089 17.05 3.30157H12.05C11.7774 3.28734 11.5077 3.36272 11.282 3.51621C11.0562 3.66969 10.887 3.89284 10.8 4.15157L10.1 6.43907C10.0025 6.72842 9.80247 6.97208 9.53764 7.12407C9.27282 7.27605 8.96152 7.32585 8.6625 7.26407L6.25 6.78907C6.00569 6.75454 5.75662 6.79309 5.53418 6.89987C5.31174 7.00664 5.12588 7.17685 5 7.38907L2.5 11.7141C2.36395 11.9399 2.30278 12.2029 2.32523 12.4656C2.34768 12.7283 2.4526 12.9771 2.625 13.1766L4.2125 14.9766C4.4129 15.2047 4.52342 15.4979 4.52342 15.8016C4.52342 16.1052 4.4129 16.3985 4.2125 16.6266L2.625 18.4266C2.4526 18.626 2.34768 18.8749 2.32523 19.1375C2.30278 19.4002 2.36395 19.6633 2.5 19.8891L5 24.2141C5.13137 24.4422 5.3314 24.623 5.57157 24.7307C5.81173 24.8384 6.07978 24.8676 6.3375 24.8141L8.6875 24.3391C8.98652 24.2773 9.29782 24.3271 9.56264 24.4791C9.82747 24.6311 10.0275 24.8747 10.125 25.1641L10.8875 27.4516C10.9745 27.7103 11.1437 27.9334 11.3695 28.0869C11.5952 28.2404 11.8649 28.3158 12.1375 28.3016H17.1375C17.3996 28.3022 17.6552 28.2205 17.8683 28.068C18.0814 27.9155 18.2411 27.6998 18.325 27.4516L19.0875 25.1641C19.185 24.8747 19.385 24.6311 19.6499 24.4791C19.9147 24.3271 20.226 24.2773 20.525 24.3391L22.875 24.8141C23.1327 24.8676 23.4008 24.8384 23.6409 24.7307C23.8811 24.623 24.0811 24.4422 24.2125 24.2141L26.7125 19.8891C26.8452 19.6607 26.9022 19.3962 26.8752 19.1334C26.8483 18.8707 26.7388 18.6232 26.5625 18.4266L24.875 16.6266ZM23.0125 18.3016L24.0125 19.4266L22.4125 22.2016L20.9375 21.9016C20.0372 21.7175 19.1007 21.8705 18.3057 22.3313C17.5108 22.7922 16.9127 23.5289 16.625 24.4016L16.15 25.8016H12.95L12.5 24.3766C12.2123 23.5039 11.6142 22.7672 10.8193 22.3063C10.0243 21.8455 9.08778 21.6925 8.1875 21.8766L6.7125 22.1766L5.0875 19.4141L6.0875 18.2891C6.70244 17.6015 7.04242 16.7115 7.04242 15.7891C7.04242 14.8666 6.70244 13.9766 6.0875 13.2891L5.0875 12.1641L6.6875 9.41407L8.1625 9.71407C9.06278 9.89809 9.99928 9.74517 10.7943 9.28431C11.5892 8.82346 12.1873 8.08676 12.475 7.21407L12.95 5.80157H16.15L16.625 7.22657C16.9127 8.09926 17.5108 8.83596 18.3057 9.29681C19.1007 9.75767 20.0372 9.91059 20.9375 9.72657L22.4125 9.42657L24.0125 12.2016L23.0125 13.3266C22.4045 14.0125 22.0687 14.8974 22.0687 15.8141C22.0687 16.7307 22.4045 17.6156 23.0125 18.3016ZM14.55 10.8016C13.5611 10.8016 12.5944 11.0948 11.7721 11.6442C10.9499 12.1936 10.309 12.9745 9.9306 13.8881C9.55216 14.8018 9.45315 15.8071 9.64607 16.777C9.839 17.7469 10.3152 18.6378 11.0145 19.3371C11.7137 20.0364 12.6046 20.5126 13.5745 20.7055C14.5445 20.8984 15.5498 20.7994 16.4634 20.421C17.377 20.0425 18.1579 19.4017 18.7073 18.5794C19.2568 17.7572 19.55 16.7905 19.55 15.8016C19.55 14.4755 19.0232 13.2037 18.0855 12.266C17.1479 11.3284 15.8761 10.8016 14.55 10.8016ZM14.55 18.3016C14.0555 18.3016 13.5722 18.1549 13.1611 17.8802C12.75 17.6055 12.4295 17.2151 12.2403 16.7583C12.0511 16.3015 12.0016 15.7988 12.098 15.3138C12.1945 14.8289 12.4326 14.3834 12.7822 14.0338C13.1319 13.6842 13.5773 13.4461 14.0623 13.3496C14.5472 13.2531 15.0499 13.3026 15.5067 13.4919C15.9635 13.6811 16.354 14.0015 16.6287 14.4126C16.9034 14.8238 17.05 15.3071 17.05 15.8016C17.05 16.4646 16.7866 17.1005 16.3178 17.5693C15.8489 18.0382 15.213 18.3016 14.55 18.3016Z" fill="#1F1F1F"/>
</svg>
